<mxfile host="app.diagrams.net" agent="Mozilla/5.0 (Windows NT 10.0; Win64; x64) AppleWebKit/537.36 (KHTML, like Gecko) Chrome/127.0.0.0 Safari/537.36" version="24.7.14">
  <diagram name="Trang-1" id="C-tgxgAVF5Ouf7KuxYOn">
    <mxGraphModel dx="2206" dy="981" grid="0" gridSize="10" guides="1" tooltips="1" connect="1" arrows="1" fold="1" page="0" pageScale="1" pageWidth="827" pageHeight="1169" math="0" shadow="0">
      <root>
        <mxCell id="0" />
        <mxCell id="1" parent="0" />
        <mxCell id="ZC5v_0BSbkfHpD8rnW3x-1" value="TaiKhoan" style="swimlane;fontStyle=0;childLayout=stackLayout;horizontal=1;startSize=26;fillColor=none;horizontalStack=0;resizeParent=1;resizeParentMax=0;resizeLast=0;collapsible=1;marginBottom=0;whiteSpace=wrap;html=1;" vertex="1" parent="1">
          <mxGeometry x="-158" y="-158" width="160" height="156" as="geometry" />
        </mxCell>
        <mxCell id="ZC5v_0BSbkfHpD8rnW3x-2" value="MaNhanVien:int" style="text;strokeColor=none;fillColor=none;align=left;verticalAlign=top;spacingLeft=4;spacingRight=4;overflow=hidden;rotatable=0;points=[[0,0.5],[1,0.5]];portConstraint=eastwest;whiteSpace=wrap;html=1;" vertex="1" parent="ZC5v_0BSbkfHpD8rnW3x-1">
          <mxGeometry y="26" width="160" height="26" as="geometry" />
        </mxCell>
        <mxCell id="ZC5v_0BSbkfHpD8rnW3x-3" value="MaNhomQuyen:int" style="text;strokeColor=none;fillColor=none;align=left;verticalAlign=top;spacingLeft=4;spacingRight=4;overflow=hidden;rotatable=0;points=[[0,0.5],[1,0.5]];portConstraint=eastwest;whiteSpace=wrap;html=1;" vertex="1" parent="ZC5v_0BSbkfHpD8rnW3x-1">
          <mxGeometry y="52" width="160" height="26" as="geometry" />
        </mxCell>
        <mxCell id="ZC5v_0BSbkfHpD8rnW3x-4" value="TaiKhoan:nvarchar(250)" style="text;strokeColor=none;fillColor=none;align=left;verticalAlign=top;spacingLeft=4;spacingRight=4;overflow=hidden;rotatable=0;points=[[0,0.5],[1,0.5]];portConstraint=eastwest;whiteSpace=wrap;html=1;" vertex="1" parent="ZC5v_0BSbkfHpD8rnW3x-1">
          <mxGeometry y="78" width="160" height="26" as="geometry" />
        </mxCell>
        <mxCell id="ZC5v_0BSbkfHpD8rnW3x-5" value="MatKhau:nvarchar(250)" style="text;strokeColor=none;fillColor=none;align=left;verticalAlign=top;spacingLeft=4;spacingRight=4;overflow=hidden;rotatable=0;points=[[0,0.5],[1,0.5]];portConstraint=eastwest;whiteSpace=wrap;html=1;" vertex="1" parent="ZC5v_0BSbkfHpD8rnW3x-1">
          <mxGeometry y="104" width="160" height="26" as="geometry" />
        </mxCell>
        <mxCell id="ZC5v_0BSbkfHpD8rnW3x-6" value="TrangThai:boolean" style="text;strokeColor=none;fillColor=none;align=left;verticalAlign=top;spacingLeft=4;spacingRight=4;overflow=hidden;rotatable=0;points=[[0,0.5],[1,0.5]];portConstraint=eastwest;whiteSpace=wrap;html=1;" vertex="1" parent="ZC5v_0BSbkfHpD8rnW3x-1">
          <mxGeometry y="130" width="160" height="26" as="geometry" />
        </mxCell>
        <mxCell id="ZC5v_0BSbkfHpD8rnW3x-16" value="PhongBan" style="swimlane;fontStyle=0;childLayout=stackLayout;horizontal=1;startSize=26;fillColor=none;horizontalStack=0;resizeParent=1;resizeParentMax=0;resizeLast=0;collapsible=1;marginBottom=0;whiteSpace=wrap;html=1;" vertex="1" parent="1">
          <mxGeometry x="-353" y="-165" width="140" height="104" as="geometry" />
        </mxCell>
        <mxCell id="ZC5v_0BSbkfHpD8rnW3x-17" value="MaPhongBan:int" style="text;strokeColor=none;fillColor=none;align=left;verticalAlign=top;spacingLeft=4;spacingRight=4;overflow=hidden;rotatable=0;points=[[0,0.5],[1,0.5]];portConstraint=eastwest;whiteSpace=wrap;html=1;" vertex="1" parent="ZC5v_0BSbkfHpD8rnW3x-16">
          <mxGeometry y="26" width="140" height="26" as="geometry" />
        </mxCell>
        <mxCell id="ZC5v_0BSbkfHpD8rnW3x-18" value="TenPhongBan:int" style="text;strokeColor=none;fillColor=none;align=left;verticalAlign=top;spacingLeft=4;spacingRight=4;overflow=hidden;rotatable=0;points=[[0,0.5],[1,0.5]];portConstraint=eastwest;whiteSpace=wrap;html=1;" vertex="1" parent="ZC5v_0BSbkfHpD8rnW3x-16">
          <mxGeometry y="52" width="140" height="26" as="geometry" />
        </mxCell>
        <mxCell id="ZC5v_0BSbkfHpD8rnW3x-19" value="TrangThai:boolean" style="text;strokeColor=none;fillColor=none;align=left;verticalAlign=top;spacingLeft=4;spacingRight=4;overflow=hidden;rotatable=0;points=[[0,0.5],[1,0.5]];portConstraint=eastwest;whiteSpace=wrap;html=1;" vertex="1" parent="ZC5v_0BSbkfHpD8rnW3x-16">
          <mxGeometry y="78" width="140" height="26" as="geometry" />
        </mxCell>
        <mxCell id="ZC5v_0BSbkfHpD8rnW3x-20" style="edgeStyle=none;curved=1;rounded=0;orthogonalLoop=1;jettySize=auto;html=1;entryX=1;entryY=0.5;entryDx=0;entryDy=0;fontSize=12;startSize=8;endSize=8;" edge="1" parent="ZC5v_0BSbkfHpD8rnW3x-16" source="ZC5v_0BSbkfHpD8rnW3x-18" target="ZC5v_0BSbkfHpD8rnW3x-18">
          <mxGeometry relative="1" as="geometry" />
        </mxCell>
        <mxCell id="ZC5v_0BSbkfHpD8rnW3x-21" value="CongViec" style="swimlane;fontStyle=0;childLayout=stackLayout;horizontal=1;startSize=26;fillColor=none;horizontalStack=0;resizeParent=1;resizeParentMax=0;resizeLast=0;collapsible=1;marginBottom=0;whiteSpace=wrap;html=1;" vertex="1" parent="1">
          <mxGeometry x="-608" y="47" width="193" height="260" as="geometry" />
        </mxCell>
        <mxCell id="ZC5v_0BSbkfHpD8rnW3x-22" value="MaCongViec:int" style="text;strokeColor=none;fillColor=none;align=left;verticalAlign=top;spacingLeft=4;spacingRight=4;overflow=hidden;rotatable=0;points=[[0,0.5],[1,0.5]];portConstraint=eastwest;whiteSpace=wrap;html=1;" vertex="1" parent="ZC5v_0BSbkfHpD8rnW3x-21">
          <mxGeometry y="26" width="193" height="26" as="geometry" />
        </mxCell>
        <mxCell id="ZC5v_0BSbkfHpD8rnW3x-23" value="TenCongViec:nvarchar(250)" style="text;strokeColor=none;fillColor=none;align=left;verticalAlign=top;spacingLeft=4;spacingRight=4;overflow=hidden;rotatable=0;points=[[0,0.5],[1,0.5]];portConstraint=eastwest;whiteSpace=wrap;html=1;" vertex="1" parent="ZC5v_0BSbkfHpD8rnW3x-21">
          <mxGeometry y="52" width="193" height="26" as="geometry" />
        </mxCell>
        <mxCell id="ZC5v_0BSbkfHpD8rnW3x-24" value="MoTa:nvarchar(250)" style="text;strokeColor=none;fillColor=none;align=left;verticalAlign=top;spacingLeft=4;spacingRight=4;overflow=hidden;rotatable=0;points=[[0,0.5],[1,0.5]];portConstraint=eastwest;whiteSpace=wrap;html=1;" vertex="1" parent="ZC5v_0BSbkfHpD8rnW3x-21">
          <mxGeometry y="78" width="193" height="26" as="geometry" />
        </mxCell>
        <mxCell id="ZC5v_0BSbkfHpD8rnW3x-25" value="MucDoUuTien:nvarchar(250)" style="text;strokeColor=none;fillColor=none;align=left;verticalAlign=top;spacingLeft=4;spacingRight=4;overflow=hidden;rotatable=0;points=[[0,0.5],[1,0.5]];portConstraint=eastwest;whiteSpace=wrap;html=1;" vertex="1" parent="ZC5v_0BSbkfHpD8rnW3x-21">
          <mxGeometry y="104" width="193" height="26" as="geometry" />
        </mxCell>
        <mxCell id="ZC5v_0BSbkfHpD8rnW3x-26" value="ThoiGianBatDau:date" style="text;strokeColor=none;fillColor=none;align=left;verticalAlign=top;spacingLeft=4;spacingRight=4;overflow=hidden;rotatable=0;points=[[0,0.5],[1,0.5]];portConstraint=eastwest;whiteSpace=wrap;html=1;" vertex="1" parent="ZC5v_0BSbkfHpD8rnW3x-21">
          <mxGeometry y="130" width="193" height="26" as="geometry" />
        </mxCell>
        <mxCell id="ZC5v_0BSbkfHpD8rnW3x-27" value="ThoiGianKetThuc:date" style="text;strokeColor=none;fillColor=none;align=left;verticalAlign=top;spacingLeft=4;spacingRight=4;overflow=hidden;rotatable=0;points=[[0,0.5],[1,0.5]];portConstraint=eastwest;whiteSpace=wrap;html=1;" vertex="1" parent="ZC5v_0BSbkfHpD8rnW3x-21">
          <mxGeometry y="156" width="193" height="26" as="geometry" />
        </mxCell>
        <mxCell id="ZC5v_0BSbkfHpD8rnW3x-28" value="TrangThaiCongViec:nvarchar(250)" style="text;strokeColor=none;fillColor=none;align=left;verticalAlign=top;spacingLeft=4;spacingRight=4;overflow=hidden;rotatable=0;points=[[0,0.5],[1,0.5]];portConstraint=eastwest;whiteSpace=wrap;html=1;" vertex="1" parent="ZC5v_0BSbkfHpD8rnW3x-21">
          <mxGeometry y="182" width="193" height="26" as="geometry" />
        </mxCell>
        <mxCell id="ZC5v_0BSbkfHpD8rnW3x-29" value="MucDoHoanThanh:float" style="text;strokeColor=none;fillColor=none;align=left;verticalAlign=top;spacingLeft=4;spacingRight=4;overflow=hidden;rotatable=0;points=[[0,0.5],[1,0.5]];portConstraint=eastwest;whiteSpace=wrap;html=1;" vertex="1" parent="ZC5v_0BSbkfHpD8rnW3x-21">
          <mxGeometry y="208" width="193" height="26" as="geometry" />
        </mxCell>
        <mxCell id="ZC5v_0BSbkfHpD8rnW3x-30" value="TrangThai:boolean" style="text;strokeColor=none;fillColor=none;align=left;verticalAlign=top;spacingLeft=4;spacingRight=4;overflow=hidden;rotatable=0;points=[[0,0.5],[1,0.5]];portConstraint=eastwest;whiteSpace=wrap;html=1;" vertex="1" parent="ZC5v_0BSbkfHpD8rnW3x-21">
          <mxGeometry y="234" width="193" height="26" as="geometry" />
        </mxCell>
        <mxCell id="ZC5v_0BSbkfHpD8rnW3x-60" value="ChucNang" style="swimlane;fontStyle=0;childLayout=stackLayout;horizontal=1;startSize=26;fillColor=none;horizontalStack=0;resizeParent=1;resizeParentMax=0;resizeLast=0;collapsible=1;marginBottom=0;whiteSpace=wrap;html=1;" vertex="1" parent="1">
          <mxGeometry x="-560" y="-310" width="170" height="104" as="geometry" />
        </mxCell>
        <mxCell id="ZC5v_0BSbkfHpD8rnW3x-61" value="MaChucNang:int" style="text;strokeColor=none;fillColor=none;align=left;verticalAlign=top;spacingLeft=4;spacingRight=4;overflow=hidden;rotatable=0;points=[[0,0.5],[1,0.5]];portConstraint=eastwest;whiteSpace=wrap;html=1;" vertex="1" parent="ZC5v_0BSbkfHpD8rnW3x-60">
          <mxGeometry y="26" width="170" height="26" as="geometry" />
        </mxCell>
        <mxCell id="ZC5v_0BSbkfHpD8rnW3x-62" value="TenChucNang:nvarchar(250)" style="text;strokeColor=none;fillColor=none;align=left;verticalAlign=top;spacingLeft=4;spacingRight=4;overflow=hidden;rotatable=0;points=[[0,0.5],[1,0.5]];portConstraint=eastwest;whiteSpace=wrap;html=1;" vertex="1" parent="ZC5v_0BSbkfHpD8rnW3x-60">
          <mxGeometry y="52" width="170" height="26" as="geometry" />
        </mxCell>
        <mxCell id="ZC5v_0BSbkfHpD8rnW3x-63" value="TrangThai::boolean" style="text;strokeColor=none;fillColor=none;align=left;verticalAlign=top;spacingLeft=4;spacingRight=4;overflow=hidden;rotatable=0;points=[[0,0.5],[1,0.5]];portConstraint=eastwest;whiteSpace=wrap;html=1;" vertex="1" parent="ZC5v_0BSbkfHpD8rnW3x-60">
          <mxGeometry y="78" width="170" height="26" as="geometry" />
        </mxCell>
        <mxCell id="ZC5v_0BSbkfHpD8rnW3x-64" value="ChucNang_ChucVu" style="swimlane;fontStyle=0;childLayout=stackLayout;horizontal=1;startSize=26;fillColor=none;horizontalStack=0;resizeParent=1;resizeParentMax=0;resizeLast=0;collapsible=1;marginBottom=0;whiteSpace=wrap;html=1;" vertex="1" parent="1">
          <mxGeometry x="-350" y="-284" width="170" height="78" as="geometry" />
        </mxCell>
        <mxCell id="ZC5v_0BSbkfHpD8rnW3x-65" value="MaChucNang:int" style="text;strokeColor=none;fillColor=none;align=left;verticalAlign=top;spacingLeft=4;spacingRight=4;overflow=hidden;rotatable=0;points=[[0,0.5],[1,0.5]];portConstraint=eastwest;whiteSpace=wrap;html=1;" vertex="1" parent="ZC5v_0BSbkfHpD8rnW3x-64">
          <mxGeometry y="26" width="170" height="26" as="geometry" />
        </mxCell>
        <mxCell id="ZC5v_0BSbkfHpD8rnW3x-66" value="MaChucVu:int" style="text;strokeColor=none;fillColor=none;align=left;verticalAlign=top;spacingLeft=4;spacingRight=4;overflow=hidden;rotatable=0;points=[[0,0.5],[1,0.5]];portConstraint=eastwest;whiteSpace=wrap;html=1;" vertex="1" parent="ZC5v_0BSbkfHpD8rnW3x-64">
          <mxGeometry y="52" width="170" height="26" as="geometry" />
        </mxCell>
        <mxCell id="ZC5v_0BSbkfHpD8rnW3x-67" value="NhomQuyen" style="swimlane;fontStyle=0;childLayout=stackLayout;horizontal=1;startSize=26;fillColor=none;horizontalStack=0;resizeParent=1;resizeParentMax=0;resizeLast=0;collapsible=1;marginBottom=0;whiteSpace=wrap;html=1;" vertex="1" parent="1">
          <mxGeometry x="-140" y="-310" width="170" height="104" as="geometry" />
        </mxCell>
        <mxCell id="ZC5v_0BSbkfHpD8rnW3x-68" value="MaQuyen:int" style="text;strokeColor=none;fillColor=none;align=left;verticalAlign=top;spacingLeft=4;spacingRight=4;overflow=hidden;rotatable=0;points=[[0,0.5],[1,0.5]];portConstraint=eastwest;whiteSpace=wrap;html=1;" vertex="1" parent="ZC5v_0BSbkfHpD8rnW3x-67">
          <mxGeometry y="26" width="170" height="26" as="geometry" />
        </mxCell>
        <mxCell id="ZC5v_0BSbkfHpD8rnW3x-69" value="TenQuyen:nvarchar(250)" style="text;strokeColor=none;fillColor=none;align=left;verticalAlign=top;spacingLeft=4;spacingRight=4;overflow=hidden;rotatable=0;points=[[0,0.5],[1,0.5]];portConstraint=eastwest;whiteSpace=wrap;html=1;" vertex="1" parent="ZC5v_0BSbkfHpD8rnW3x-67">
          <mxGeometry y="52" width="170" height="26" as="geometry" />
        </mxCell>
        <mxCell id="ZC5v_0BSbkfHpD8rnW3x-70" value="TrangThai::boolean" style="text;strokeColor=none;fillColor=none;align=left;verticalAlign=top;spacingLeft=4;spacingRight=4;overflow=hidden;rotatable=0;points=[[0,0.5],[1,0.5]];portConstraint=eastwest;whiteSpace=wrap;html=1;" vertex="1" parent="ZC5v_0BSbkfHpD8rnW3x-67">
          <mxGeometry y="78" width="170" height="26" as="geometry" />
        </mxCell>
        <mxCell id="ZC5v_0BSbkfHpD8rnW3x-71" style="edgeStyle=none;curved=1;rounded=0;orthogonalLoop=1;jettySize=auto;html=1;exitX=1;exitY=0.5;exitDx=0;exitDy=0;entryX=0;entryY=0.5;entryDx=0;entryDy=0;fontSize=12;startSize=8;endSize=8;endArrow=ERoneToMany;endFill=0;startArrow=ERmandOne;startFill=0;" edge="1" parent="1" source="ZC5v_0BSbkfHpD8rnW3x-62" target="ZC5v_0BSbkfHpD8rnW3x-65">
          <mxGeometry relative="1" as="geometry" />
        </mxCell>
        <mxCell id="ZC5v_0BSbkfHpD8rnW3x-72" style="edgeStyle=none;curved=1;rounded=0;orthogonalLoop=1;jettySize=auto;html=1;exitX=1;exitY=0.5;exitDx=0;exitDy=0;entryX=0;entryY=0.5;entryDx=0;entryDy=0;fontSize=12;startSize=8;endSize=8;endArrow=ERmandOne;endFill=0;startArrow=ERoneToMany;startFill=0;" edge="1" parent="1" source="ZC5v_0BSbkfHpD8rnW3x-65" target="ZC5v_0BSbkfHpD8rnW3x-69">
          <mxGeometry relative="1" as="geometry" />
        </mxCell>
        <mxCell id="ZC5v_0BSbkfHpD8rnW3x-73" style="edgeStyle=none;curved=1;rounded=0;orthogonalLoop=1;jettySize=auto;html=1;exitX=0.5;exitY=0;exitDx=0;exitDy=0;entryX=0.356;entryY=0.908;entryDx=0;entryDy=0;entryPerimeter=0;fontSize=12;startSize=8;endSize=8;endArrow=ERmandOne;endFill=0;startArrow=ERoneToMany;startFill=0;" edge="1" parent="1" source="ZC5v_0BSbkfHpD8rnW3x-1" target="ZC5v_0BSbkfHpD8rnW3x-70">
          <mxGeometry relative="1" as="geometry" />
        </mxCell>
        <mxCell id="ZC5v_0BSbkfHpD8rnW3x-108" value="CongViec_PhongBan" style="swimlane;fontStyle=0;childLayout=stackLayout;horizontal=1;startSize=26;fillColor=none;horizontalStack=0;resizeParent=1;resizeParentMax=0;resizeLast=0;collapsible=1;marginBottom=0;whiteSpace=wrap;html=1;" vertex="1" parent="1">
          <mxGeometry x="-597" y="-162" width="164" height="104" as="geometry">
            <mxRectangle x="280" y="562" width="100" height="30" as="alternateBounds" />
          </mxGeometry>
        </mxCell>
        <mxCell id="ZC5v_0BSbkfHpD8rnW3x-109" value="Id:int" style="text;strokeColor=none;fillColor=none;align=left;verticalAlign=top;spacingLeft=4;spacingRight=4;overflow=hidden;rotatable=0;points=[[0,0.5],[1,0.5]];portConstraint=eastwest;whiteSpace=wrap;html=1;" vertex="1" parent="ZC5v_0BSbkfHpD8rnW3x-108">
          <mxGeometry y="26" width="164" height="26" as="geometry" />
        </mxCell>
        <mxCell id="ZC5v_0BSbkfHpD8rnW3x-111" value="MaPhongBan:int" style="text;strokeColor=none;fillColor=none;align=left;verticalAlign=top;spacingLeft=4;spacingRight=4;overflow=hidden;rotatable=0;points=[[0,0.5],[1,0.5]];portConstraint=eastwest;whiteSpace=wrap;html=1;" vertex="1" parent="ZC5v_0BSbkfHpD8rnW3x-108">
          <mxGeometry y="52" width="164" height="26" as="geometry" />
        </mxCell>
        <mxCell id="ZC5v_0BSbkfHpD8rnW3x-112" value="MaCongViec:int" style="text;strokeColor=none;fillColor=none;align=left;verticalAlign=top;spacingLeft=4;spacingRight=4;overflow=hidden;rotatable=0;points=[[0,0.5],[1,0.5]];portConstraint=eastwest;whiteSpace=wrap;html=1;" vertex="1" parent="ZC5v_0BSbkfHpD8rnW3x-108">
          <mxGeometry y="78" width="164" height="26" as="geometry" />
        </mxCell>
        <mxCell id="ZC5v_0BSbkfHpD8rnW3x-113" style="edgeStyle=none;curved=1;rounded=0;orthogonalLoop=1;jettySize=auto;html=1;exitX=0.5;exitY=0;exitDx=0;exitDy=0;entryX=0.524;entryY=1.023;entryDx=0;entryDy=0;entryPerimeter=0;fontSize=12;startSize=8;endSize=8;endArrow=ERoneToMany;endFill=0;startArrow=ERmandOne;startFill=0;" edge="1" parent="1" source="ZC5v_0BSbkfHpD8rnW3x-21" target="ZC5v_0BSbkfHpD8rnW3x-112">
          <mxGeometry relative="1" as="geometry" />
        </mxCell>
        <mxCell id="ZC5v_0BSbkfHpD8rnW3x-115" value="NhanVien" style="swimlane;fontStyle=0;childLayout=stackLayout;horizontal=1;startSize=26;fillColor=none;horizontalStack=0;resizeParent=1;resizeParentMax=0;resizeLast=0;collapsible=1;marginBottom=0;whiteSpace=wrap;html=1;" vertex="1" parent="1">
          <mxGeometry x="-358" y="-14" width="160" height="208" as="geometry" />
        </mxCell>
        <mxCell id="ZC5v_0BSbkfHpD8rnW3x-116" value="MaNhanVien:int" style="text;strokeColor=none;fillColor=none;align=left;verticalAlign=top;spacingLeft=4;spacingRight=4;overflow=hidden;rotatable=0;points=[[0,0.5],[1,0.5]];portConstraint=eastwest;whiteSpace=wrap;html=1;" vertex="1" parent="ZC5v_0BSbkfHpD8rnW3x-115">
          <mxGeometry y="26" width="160" height="26" as="geometry" />
        </mxCell>
        <mxCell id="ZC5v_0BSbkfHpD8rnW3x-117" value="MaChucVu:int" style="text;strokeColor=none;fillColor=none;align=left;verticalAlign=top;spacingLeft=4;spacingRight=4;overflow=hidden;rotatable=0;points=[[0,0.5],[1,0.5]];portConstraint=eastwest;whiteSpace=wrap;html=1;" vertex="1" parent="ZC5v_0BSbkfHpD8rnW3x-115">
          <mxGeometry y="52" width="160" height="26" as="geometry" />
        </mxCell>
        <mxCell id="ZC5v_0BSbkfHpD8rnW3x-118" value="MaPhongBan:int" style="text;strokeColor=none;fillColor=none;align=left;verticalAlign=top;spacingLeft=4;spacingRight=4;overflow=hidden;rotatable=0;points=[[0,0.5],[1,0.5]];portConstraint=eastwest;whiteSpace=wrap;html=1;" vertex="1" parent="ZC5v_0BSbkfHpD8rnW3x-115">
          <mxGeometry y="78" width="160" height="26" as="geometry" />
        </mxCell>
        <mxCell id="ZC5v_0BSbkfHpD8rnW3x-119" value="TenNhanVien:nvarchar(50)" style="text;strokeColor=none;fillColor=none;align=left;verticalAlign=top;spacingLeft=4;spacingRight=4;overflow=hidden;rotatable=0;points=[[0,0.5],[1,0.5]];portConstraint=eastwest;whiteSpace=wrap;html=1;" vertex="1" parent="ZC5v_0BSbkfHpD8rnW3x-115">
          <mxGeometry y="104" width="160" height="26" as="geometry" />
        </mxCell>
        <mxCell id="ZC5v_0BSbkfHpD8rnW3x-120" value="SoDienThoai:varchar(10)" style="text;strokeColor=none;fillColor=none;align=left;verticalAlign=top;spacingLeft=4;spacingRight=4;overflow=hidden;rotatable=0;points=[[0,0.5],[1,0.5]];portConstraint=eastwest;whiteSpace=wrap;html=1;" vertex="1" parent="ZC5v_0BSbkfHpD8rnW3x-115">
          <mxGeometry y="130" width="160" height="26" as="geometry" />
        </mxCell>
        <mxCell id="ZC5v_0BSbkfHpD8rnW3x-121" value="Email:varchar(50)" style="text;strokeColor=none;fillColor=none;align=left;verticalAlign=top;spacingLeft=4;spacingRight=4;overflow=hidden;rotatable=0;points=[[0,0.5],[1,0.5]];portConstraint=eastwest;whiteSpace=wrap;html=1;" vertex="1" parent="ZC5v_0BSbkfHpD8rnW3x-115">
          <mxGeometry y="156" width="160" height="26" as="geometry" />
        </mxCell>
        <mxCell id="ZC5v_0BSbkfHpD8rnW3x-122" value="TrangThai:boolean" style="text;strokeColor=none;fillColor=none;align=left;verticalAlign=top;spacingLeft=4;spacingRight=4;overflow=hidden;rotatable=0;points=[[0,0.5],[1,0.5]];portConstraint=eastwest;whiteSpace=wrap;html=1;" vertex="1" parent="ZC5v_0BSbkfHpD8rnW3x-115">
          <mxGeometry y="182" width="160" height="26" as="geometry" />
        </mxCell>
        <mxCell id="ZC5v_0BSbkfHpD8rnW3x-124" style="edgeStyle=none;curved=1;rounded=0;orthogonalLoop=1;jettySize=auto;html=1;exitX=0.5;exitY=0;exitDx=0;exitDy=0;entryX=0.53;entryY=0.938;entryDx=0;entryDy=0;entryPerimeter=0;fontSize=12;startSize=8;endSize=8;startArrow=ERoneToMany;startFill=0;endArrow=ERmandOne;endFill=0;" edge="1" parent="1" source="ZC5v_0BSbkfHpD8rnW3x-115" target="ZC5v_0BSbkfHpD8rnW3x-19">
          <mxGeometry relative="1" as="geometry" />
        </mxCell>
        <mxCell id="ZC5v_0BSbkfHpD8rnW3x-125" style="edgeStyle=none;curved=1;rounded=0;orthogonalLoop=1;jettySize=auto;html=1;exitX=1;exitY=0.5;exitDx=0;exitDy=0;entryX=0;entryY=0.5;entryDx=0;entryDy=0;fontSize=12;startSize=8;endSize=8;startArrow=ERoneToMany;startFill=0;endArrow=ERmandOne;endFill=0;" edge="1" parent="1" target="ZC5v_0BSbkfHpD8rnW3x-18">
          <mxGeometry relative="1" as="geometry">
            <mxPoint x="-433" y="-97" as="sourcePoint" />
          </mxGeometry>
        </mxCell>
        <mxCell id="ZC5v_0BSbkfHpD8rnW3x-126" style="edgeStyle=none;curved=1;rounded=0;orthogonalLoop=1;jettySize=auto;html=1;exitX=0;exitY=0.5;exitDx=0;exitDy=0;entryX=1;entryY=0.5;entryDx=0;entryDy=0;fontSize=12;startSize=8;endSize=8;startArrow=ERmandOne;startFill=0;endArrow=ERmandOne;endFill=0;" edge="1" parent="1" source="ZC5v_0BSbkfHpD8rnW3x-5" target="ZC5v_0BSbkfHpD8rnW3x-117">
          <mxGeometry relative="1" as="geometry" />
        </mxCell>
        <mxCell id="ZC5v_0BSbkfHpD8rnW3x-127" value="ChiTietCongViec" style="swimlane;fontStyle=0;childLayout=stackLayout;horizontal=1;startSize=26;fillColor=none;horizontalStack=0;resizeParent=1;resizeParentMax=0;resizeLast=0;collapsible=1;marginBottom=0;whiteSpace=wrap;html=1;" vertex="1" parent="1">
          <mxGeometry x="-896" y="53" width="206" height="260" as="geometry" />
        </mxCell>
        <mxCell id="ZC5v_0BSbkfHpD8rnW3x-137" value="MaChiTietCongViec:int" style="text;strokeColor=none;fillColor=none;align=left;verticalAlign=top;spacingLeft=4;spacingRight=4;overflow=hidden;rotatable=0;points=[[0,0.5],[1,0.5]];portConstraint=eastwest;whiteSpace=wrap;html=1;" vertex="1" parent="ZC5v_0BSbkfHpD8rnW3x-127">
          <mxGeometry y="26" width="206" height="26" as="geometry" />
        </mxCell>
        <mxCell id="ZC5v_0BSbkfHpD8rnW3x-128" value="MaCongViec:int" style="text;strokeColor=none;fillColor=none;align=left;verticalAlign=top;spacingLeft=4;spacingRight=4;overflow=hidden;rotatable=0;points=[[0,0.5],[1,0.5]];portConstraint=eastwest;whiteSpace=wrap;html=1;" vertex="1" parent="ZC5v_0BSbkfHpD8rnW3x-127">
          <mxGeometry y="52" width="206" height="26" as="geometry" />
        </mxCell>
        <mxCell id="ZC5v_0BSbkfHpD8rnW3x-129" value="CongViecCanLam:nvarchar(250)" style="text;strokeColor=none;fillColor=none;align=left;verticalAlign=top;spacingLeft=4;spacingRight=4;overflow=hidden;rotatable=0;points=[[0,0.5],[1,0.5]];portConstraint=eastwest;whiteSpace=wrap;html=1;" vertex="1" parent="ZC5v_0BSbkfHpD8rnW3x-127">
          <mxGeometry y="78" width="206" height="26" as="geometry" />
        </mxCell>
        <mxCell id="ZC5v_0BSbkfHpD8rnW3x-131" value="MucDoUuTien:nvarchar(250)" style="text;strokeColor=none;fillColor=none;align=left;verticalAlign=top;spacingLeft=4;spacingRight=4;overflow=hidden;rotatable=0;points=[[0,0.5],[1,0.5]];portConstraint=eastwest;whiteSpace=wrap;html=1;" vertex="1" parent="ZC5v_0BSbkfHpD8rnW3x-127">
          <mxGeometry y="104" width="206" height="26" as="geometry" />
        </mxCell>
        <mxCell id="ZC5v_0BSbkfHpD8rnW3x-132" value="ThoiGianGiao:date" style="text;strokeColor=none;fillColor=none;align=left;verticalAlign=top;spacingLeft=4;spacingRight=4;overflow=hidden;rotatable=0;points=[[0,0.5],[1,0.5]];portConstraint=eastwest;whiteSpace=wrap;html=1;" vertex="1" parent="ZC5v_0BSbkfHpD8rnW3x-127">
          <mxGeometry y="130" width="206" height="26" as="geometry" />
        </mxCell>
        <mxCell id="ZC5v_0BSbkfHpD8rnW3x-133" value="ThoiGianHetHan:date" style="text;strokeColor=none;fillColor=none;align=left;verticalAlign=top;spacingLeft=4;spacingRight=4;overflow=hidden;rotatable=0;points=[[0,0.5],[1,0.5]];portConstraint=eastwest;whiteSpace=wrap;html=1;" vertex="1" parent="ZC5v_0BSbkfHpD8rnW3x-127">
          <mxGeometry y="156" width="206" height="26" as="geometry" />
        </mxCell>
        <mxCell id="ZC5v_0BSbkfHpD8rnW3x-134" value="TrangThaiCongViec:boolean" style="text;strokeColor=none;fillColor=none;align=left;verticalAlign=top;spacingLeft=4;spacingRight=4;overflow=hidden;rotatable=0;points=[[0,0.5],[1,0.5]];portConstraint=eastwest;whiteSpace=wrap;html=1;" vertex="1" parent="ZC5v_0BSbkfHpD8rnW3x-127">
          <mxGeometry y="182" width="206" height="26" as="geometry" />
        </mxCell>
        <mxCell id="ZC5v_0BSbkfHpD8rnW3x-135" value="MucDoHoanThanh:float" style="text;strokeColor=none;fillColor=none;align=left;verticalAlign=top;spacingLeft=4;spacingRight=4;overflow=hidden;rotatable=0;points=[[0,0.5],[1,0.5]];portConstraint=eastwest;whiteSpace=wrap;html=1;" vertex="1" parent="ZC5v_0BSbkfHpD8rnW3x-127">
          <mxGeometry y="208" width="206" height="26" as="geometry" />
        </mxCell>
        <mxCell id="ZC5v_0BSbkfHpD8rnW3x-136" value="TrangThai:boolean" style="text;strokeColor=none;fillColor=none;align=left;verticalAlign=top;spacingLeft=4;spacingRight=4;overflow=hidden;rotatable=0;points=[[0,0.5],[1,0.5]];portConstraint=eastwest;whiteSpace=wrap;html=1;" vertex="1" parent="ZC5v_0BSbkfHpD8rnW3x-127">
          <mxGeometry y="234" width="206" height="26" as="geometry" />
        </mxCell>
        <mxCell id="ZC5v_0BSbkfHpD8rnW3x-138" style="edgeStyle=none;curved=1;rounded=0;orthogonalLoop=1;jettySize=auto;html=1;exitX=1;exitY=0.5;exitDx=0;exitDy=0;entryX=0.01;entryY=0.785;entryDx=0;entryDy=0;entryPerimeter=0;fontSize=12;startSize=8;endSize=8;startArrow=ERoneToMany;startFill=0;endArrow=ERmandOne;endFill=0;" edge="1" parent="1" source="ZC5v_0BSbkfHpD8rnW3x-132" target="ZC5v_0BSbkfHpD8rnW3x-26">
          <mxGeometry relative="1" as="geometry" />
        </mxCell>
        <mxCell id="ZC5v_0BSbkfHpD8rnW3x-139" value="PhanCong" style="swimlane;fontStyle=0;childLayout=stackLayout;horizontal=1;startSize=26;fillColor=none;horizontalStack=0;resizeParent=1;resizeParentMax=0;resizeLast=0;collapsible=1;marginBottom=0;whiteSpace=wrap;html=1;" vertex="1" parent="1">
          <mxGeometry x="-880" y="-158" width="164" height="130" as="geometry" />
        </mxCell>
        <mxCell id="ZC5v_0BSbkfHpD8rnW3x-140" value="MaPhanCong:int" style="text;strokeColor=none;fillColor=none;align=left;verticalAlign=top;spacingLeft=4;spacingRight=4;overflow=hidden;rotatable=0;points=[[0,0.5],[1,0.5]];portConstraint=eastwest;whiteSpace=wrap;html=1;" vertex="1" parent="ZC5v_0BSbkfHpD8rnW3x-139">
          <mxGeometry y="26" width="164" height="26" as="geometry" />
        </mxCell>
        <mxCell id="ZC5v_0BSbkfHpD8rnW3x-141" value="MaChiTietCongViec:int" style="text;strokeColor=none;fillColor=none;align=left;verticalAlign=top;spacingLeft=4;spacingRight=4;overflow=hidden;rotatable=0;points=[[0,0.5],[1,0.5]];portConstraint=eastwest;whiteSpace=wrap;html=1;" vertex="1" parent="ZC5v_0BSbkfHpD8rnW3x-139">
          <mxGeometry y="52" width="164" height="26" as="geometry" />
        </mxCell>
        <mxCell id="ZC5v_0BSbkfHpD8rnW3x-149" value="MaNhanVien:int" style="text;strokeColor=none;fillColor=none;align=left;verticalAlign=top;spacingLeft=4;spacingRight=4;overflow=hidden;rotatable=0;points=[[0,0.5],[1,0.5]];portConstraint=eastwest;whiteSpace=wrap;html=1;" vertex="1" parent="ZC5v_0BSbkfHpD8rnW3x-139">
          <mxGeometry y="78" width="164" height="26" as="geometry" />
        </mxCell>
        <mxCell id="ZC5v_0BSbkfHpD8rnW3x-151" value="TrangThai:boolean" style="text;strokeColor=none;fillColor=none;align=left;verticalAlign=top;spacingLeft=4;spacingRight=4;overflow=hidden;rotatable=0;points=[[0,0.5],[1,0.5]];portConstraint=eastwest;whiteSpace=wrap;html=1;" vertex="1" parent="ZC5v_0BSbkfHpD8rnW3x-139">
          <mxGeometry y="104" width="164" height="26" as="geometry" />
        </mxCell>
        <mxCell id="ZC5v_0BSbkfHpD8rnW3x-152" style="edgeStyle=none;curved=1;rounded=0;orthogonalLoop=1;jettySize=auto;html=1;exitX=1;exitY=0.5;exitDx=0;exitDy=0;entryX=0;entryY=0.5;entryDx=0;entryDy=0;fontSize=12;startSize=8;endSize=8;startArrow=ERoneToMany;startFill=0;endArrow=ERmandOne;endFill=0;" edge="1" parent="1" source="ZC5v_0BSbkfHpD8rnW3x-151" target="ZC5v_0BSbkfHpD8rnW3x-116">
          <mxGeometry relative="1" as="geometry" />
        </mxCell>
        <mxCell id="ZC5v_0BSbkfHpD8rnW3x-153" style="edgeStyle=none;curved=1;rounded=0;orthogonalLoop=1;jettySize=auto;html=1;exitX=0.5;exitY=0;exitDx=0;exitDy=0;entryX=0.534;entryY=0.969;entryDx=0;entryDy=0;entryPerimeter=0;fontSize=12;startSize=8;endSize=8;endArrow=ERoneToMany;endFill=0;startArrow=ERmandOne;startFill=0;" edge="1" parent="1" source="ZC5v_0BSbkfHpD8rnW3x-127" target="ZC5v_0BSbkfHpD8rnW3x-151">
          <mxGeometry relative="1" as="geometry" />
        </mxCell>
        <mxCell id="ZC5v_0BSbkfHpD8rnW3x-154" value="NguoiPhuTrach" style="swimlane;fontStyle=0;childLayout=stackLayout;horizontal=1;startSize=26;fillColor=none;horizontalStack=0;resizeParent=1;resizeParentMax=0;resizeLast=0;collapsible=1;marginBottom=0;whiteSpace=wrap;html=1;" vertex="1" parent="1">
          <mxGeometry x="-360" y="231" width="164" height="156" as="geometry" />
        </mxCell>
        <mxCell id="ZC5v_0BSbkfHpD8rnW3x-155" value="MaPhuTrach:int" style="text;strokeColor=none;fillColor=none;align=left;verticalAlign=top;spacingLeft=4;spacingRight=4;overflow=hidden;rotatable=0;points=[[0,0.5],[1,0.5]];portConstraint=eastwest;whiteSpace=wrap;html=1;" vertex="1" parent="ZC5v_0BSbkfHpD8rnW3x-154">
          <mxGeometry y="26" width="164" height="26" as="geometry" />
        </mxCell>
        <mxCell id="ZC5v_0BSbkfHpD8rnW3x-156" value="MaNhanVien:int" style="text;strokeColor=none;fillColor=none;align=left;verticalAlign=top;spacingLeft=4;spacingRight=4;overflow=hidden;rotatable=0;points=[[0,0.5],[1,0.5]];portConstraint=eastwest;whiteSpace=wrap;html=1;" vertex="1" parent="ZC5v_0BSbkfHpD8rnW3x-154">
          <mxGeometry y="52" width="164" height="26" as="geometry" />
        </mxCell>
        <mxCell id="ZC5v_0BSbkfHpD8rnW3x-157" value="MaCongViec:int" style="text;strokeColor=none;fillColor=none;align=left;verticalAlign=top;spacingLeft=4;spacingRight=4;overflow=hidden;rotatable=0;points=[[0,0.5],[1,0.5]];portConstraint=eastwest;whiteSpace=wrap;html=1;" vertex="1" parent="ZC5v_0BSbkfHpD8rnW3x-154">
          <mxGeometry y="78" width="164" height="26" as="geometry" />
        </mxCell>
        <mxCell id="ZC5v_0BSbkfHpD8rnW3x-160" value="VaiTro:int" style="text;strokeColor=none;fillColor=none;align=left;verticalAlign=top;spacingLeft=4;spacingRight=4;overflow=hidden;rotatable=0;points=[[0,0.5],[1,0.5]];portConstraint=eastwest;whiteSpace=wrap;html=1;" vertex="1" parent="ZC5v_0BSbkfHpD8rnW3x-154">
          <mxGeometry y="104" width="164" height="26" as="geometry" />
        </mxCell>
        <mxCell id="ZC5v_0BSbkfHpD8rnW3x-158" value="TrangThai:boolean" style="text;strokeColor=none;fillColor=none;align=left;verticalAlign=top;spacingLeft=4;spacingRight=4;overflow=hidden;rotatable=0;points=[[0,0.5],[1,0.5]];portConstraint=eastwest;whiteSpace=wrap;html=1;" vertex="1" parent="ZC5v_0BSbkfHpD8rnW3x-154">
          <mxGeometry y="130" width="164" height="26" as="geometry" />
        </mxCell>
        <mxCell id="ZC5v_0BSbkfHpD8rnW3x-159" style="edgeStyle=none;curved=1;rounded=0;orthogonalLoop=1;jettySize=auto;html=1;exitX=0.5;exitY=0;exitDx=0;exitDy=0;entryX=0.5;entryY=0.915;entryDx=0;entryDy=0;entryPerimeter=0;fontSize=12;startSize=8;endSize=8;startArrow=ERoneToMany;startFill=0;endArrow=ERmandOne;endFill=0;" edge="1" parent="1" source="ZC5v_0BSbkfHpD8rnW3x-154" target="ZC5v_0BSbkfHpD8rnW3x-122">
          <mxGeometry relative="1" as="geometry" />
        </mxCell>
        <mxCell id="ZC5v_0BSbkfHpD8rnW3x-161" style="edgeStyle=none;curved=1;rounded=0;orthogonalLoop=1;jettySize=auto;html=1;exitX=1;exitY=0.5;exitDx=0;exitDy=0;entryX=0;entryY=0.5;entryDx=0;entryDy=0;fontSize=12;startSize=8;endSize=8;startArrow=ERmandOne;startFill=0;endArrow=ERmandOne;endFill=0;" edge="1" parent="1" source="ZC5v_0BSbkfHpD8rnW3x-30" target="ZC5v_0BSbkfHpD8rnW3x-156">
          <mxGeometry relative="1" as="geometry" />
        </mxCell>
        <mxCell id="ZC5v_0BSbkfHpD8rnW3x-162" value="ThongBaoNhacNho" style="swimlane;fontStyle=0;childLayout=stackLayout;horizontal=1;startSize=26;fillColor=none;horizontalStack=0;resizeParent=1;resizeParentMax=0;resizeLast=0;collapsible=1;marginBottom=0;whiteSpace=wrap;html=1;" vertex="1" parent="1">
          <mxGeometry x="-869" y="387" width="165" height="130" as="geometry" />
        </mxCell>
        <mxCell id="ZC5v_0BSbkfHpD8rnW3x-163" value="MaThongBaoNhacNho:int" style="text;strokeColor=none;fillColor=none;align=left;verticalAlign=top;spacingLeft=4;spacingRight=4;overflow=hidden;rotatable=0;points=[[0,0.5],[1,0.5]];portConstraint=eastwest;whiteSpace=wrap;html=1;" vertex="1" parent="ZC5v_0BSbkfHpD8rnW3x-162">
          <mxGeometry y="26" width="165" height="26" as="geometry" />
        </mxCell>
        <mxCell id="ZC5v_0BSbkfHpD8rnW3x-164" value="MaChiTietCongViec:int" style="text;strokeColor=none;fillColor=none;align=left;verticalAlign=top;spacingLeft=4;spacingRight=4;overflow=hidden;rotatable=0;points=[[0,0.5],[1,0.5]];portConstraint=eastwest;whiteSpace=wrap;html=1;" vertex="1" parent="ZC5v_0BSbkfHpD8rnW3x-162">
          <mxGeometry y="52" width="165" height="26" as="geometry" />
        </mxCell>
        <mxCell id="ZC5v_0BSbkfHpD8rnW3x-165" value="NoiDungThongBao" style="text;strokeColor=none;fillColor=none;align=left;verticalAlign=top;spacingLeft=4;spacingRight=4;overflow=hidden;rotatable=0;points=[[0,0.5],[1,0.5]];portConstraint=eastwest;whiteSpace=wrap;html=1;" vertex="1" parent="ZC5v_0BSbkfHpD8rnW3x-162">
          <mxGeometry y="78" width="165" height="26" as="geometry" />
        </mxCell>
        <mxCell id="ZC5v_0BSbkfHpD8rnW3x-167" value="TrangThai:boolean" style="text;strokeColor=none;fillColor=none;align=left;verticalAlign=top;spacingLeft=4;spacingRight=4;overflow=hidden;rotatable=0;points=[[0,0.5],[1,0.5]];portConstraint=eastwest;whiteSpace=wrap;html=1;" vertex="1" parent="ZC5v_0BSbkfHpD8rnW3x-162">
          <mxGeometry y="104" width="165" height="26" as="geometry" />
        </mxCell>
        <mxCell id="ZC5v_0BSbkfHpD8rnW3x-168" style="edgeStyle=none;curved=1;rounded=0;orthogonalLoop=1;jettySize=auto;html=1;exitX=0.5;exitY=0;exitDx=0;exitDy=0;entryX=0.53;entryY=1.015;entryDx=0;entryDy=0;entryPerimeter=0;fontSize=12;startSize=8;endSize=8;startArrow=ERoneToMany;startFill=0;endArrow=ERmandOne;endFill=0;" edge="1" parent="1" source="ZC5v_0BSbkfHpD8rnW3x-162" target="ZC5v_0BSbkfHpD8rnW3x-136">
          <mxGeometry relative="1" as="geometry" />
        </mxCell>
        <mxCell id="ZC5v_0BSbkfHpD8rnW3x-181" value="TraoDoiThongTin" style="swimlane;fontStyle=0;childLayout=stackLayout;horizontal=1;startSize=26;fillColor=none;horizontalStack=0;resizeParent=1;resizeParentMax=0;resizeLast=0;collapsible=1;marginBottom=0;whiteSpace=wrap;html=1;" vertex="1" parent="1">
          <mxGeometry x="-1171" y="-19" width="183" height="182" as="geometry" />
        </mxCell>
        <mxCell id="ZC5v_0BSbkfHpD8rnW3x-182" value="MaTraoDoiThongTin:int" style="text;strokeColor=none;fillColor=none;align=left;verticalAlign=top;spacingLeft=4;spacingRight=4;overflow=hidden;rotatable=0;points=[[0,0.5],[1,0.5]];portConstraint=eastwest;whiteSpace=wrap;html=1;" vertex="1" parent="ZC5v_0BSbkfHpD8rnW3x-181">
          <mxGeometry y="26" width="183" height="26" as="geometry" />
        </mxCell>
        <mxCell id="ZC5v_0BSbkfHpD8rnW3x-183" value="MaChiTietCongViec:int" style="text;strokeColor=none;fillColor=none;align=left;verticalAlign=top;spacingLeft=4;spacingRight=4;overflow=hidden;rotatable=0;points=[[0,0.5],[1,0.5]];portConstraint=eastwest;whiteSpace=wrap;html=1;" vertex="1" parent="ZC5v_0BSbkfHpD8rnW3x-181">
          <mxGeometry y="52" width="183" height="26" as="geometry" />
        </mxCell>
        <mxCell id="ZC5v_0BSbkfHpD8rnW3x-184" value="MaNhanVien:int" style="text;strokeColor=none;fillColor=none;align=left;verticalAlign=top;spacingLeft=4;spacingRight=4;overflow=hidden;rotatable=0;points=[[0,0.5],[1,0.5]];portConstraint=eastwest;whiteSpace=wrap;html=1;" vertex="1" parent="ZC5v_0BSbkfHpD8rnW3x-181">
          <mxGeometry y="78" width="183" height="26" as="geometry" />
        </mxCell>
        <mxCell id="ZC5v_0BSbkfHpD8rnW3x-194" value="MaFile:int" style="text;strokeColor=none;fillColor=none;align=left;verticalAlign=top;spacingLeft=4;spacingRight=4;overflow=hidden;rotatable=0;points=[[0,0.5],[1,0.5]];portConstraint=eastwest;whiteSpace=wrap;html=1;" vertex="1" parent="ZC5v_0BSbkfHpD8rnW3x-181">
          <mxGeometry y="104" width="183" height="26" as="geometry" />
        </mxCell>
        <mxCell id="ZC5v_0BSbkfHpD8rnW3x-198" value="NoiDungTraoDoi:nvarchar(250)" style="text;strokeColor=none;fillColor=none;align=left;verticalAlign=top;spacingLeft=4;spacingRight=4;overflow=hidden;rotatable=0;points=[[0,0.5],[1,0.5]];portConstraint=eastwest;whiteSpace=wrap;html=1;" vertex="1" parent="ZC5v_0BSbkfHpD8rnW3x-181">
          <mxGeometry y="130" width="183" height="26" as="geometry" />
        </mxCell>
        <mxCell id="ZC5v_0BSbkfHpD8rnW3x-186" value="TrangThai:boolean" style="text;strokeColor=none;fillColor=none;align=left;verticalAlign=top;spacingLeft=4;spacingRight=4;overflow=hidden;rotatable=0;points=[[0,0.5],[1,0.5]];portConstraint=eastwest;whiteSpace=wrap;html=1;" vertex="1" parent="ZC5v_0BSbkfHpD8rnW3x-181">
          <mxGeometry y="156" width="183" height="26" as="geometry" />
        </mxCell>
        <mxCell id="ZC5v_0BSbkfHpD8rnW3x-187" value="File" style="swimlane;fontStyle=0;childLayout=stackLayout;horizontal=1;startSize=26;fillColor=none;horizontalStack=0;resizeParent=1;resizeParentMax=0;resizeLast=0;collapsible=1;marginBottom=0;whiteSpace=wrap;html=1;" vertex="1" parent="1">
          <mxGeometry x="-1162" y="235" width="165" height="156" as="geometry" />
        </mxCell>
        <mxCell id="ZC5v_0BSbkfHpD8rnW3x-188" value="MaFile:int" style="text;strokeColor=none;fillColor=none;align=left;verticalAlign=top;spacingLeft=4;spacingRight=4;overflow=hidden;rotatable=0;points=[[0,0.5],[1,0.5]];portConstraint=eastwest;whiteSpace=wrap;html=1;" vertex="1" parent="ZC5v_0BSbkfHpD8rnW3x-187">
          <mxGeometry y="26" width="165" height="26" as="geometry" />
        </mxCell>
        <mxCell id="ZC5v_0BSbkfHpD8rnW3x-189" value="TenFile:nvarchar(250)" style="text;strokeColor=none;fillColor=none;align=left;verticalAlign=top;spacingLeft=4;spacingRight=4;overflow=hidden;rotatable=0;points=[[0,0.5],[1,0.5]];portConstraint=eastwest;whiteSpace=wrap;html=1;" vertex="1" parent="ZC5v_0BSbkfHpD8rnW3x-187">
          <mxGeometry y="52" width="165" height="26" as="geometry" />
        </mxCell>
        <mxCell id="ZC5v_0BSbkfHpD8rnW3x-190" value="DuongDan:nvarchar(250)" style="text;strokeColor=none;fillColor=none;align=left;verticalAlign=top;spacingLeft=4;spacingRight=4;overflow=hidden;rotatable=0;points=[[0,0.5],[1,0.5]];portConstraint=eastwest;whiteSpace=wrap;html=1;" vertex="1" parent="ZC5v_0BSbkfHpD8rnW3x-187">
          <mxGeometry y="78" width="165" height="26" as="geometry" />
        </mxCell>
        <mxCell id="ZC5v_0BSbkfHpD8rnW3x-191" value="LoaiFile:nvarchar(250)" style="text;strokeColor=none;fillColor=none;align=left;verticalAlign=top;spacingLeft=4;spacingRight=4;overflow=hidden;rotatable=0;points=[[0,0.5],[1,0.5]];portConstraint=eastwest;whiteSpace=wrap;html=1;" vertex="1" parent="ZC5v_0BSbkfHpD8rnW3x-187">
          <mxGeometry y="104" width="165" height="26" as="geometry" />
        </mxCell>
        <mxCell id="ZC5v_0BSbkfHpD8rnW3x-192" value="TrangThai:boolean" style="text;strokeColor=none;fillColor=none;align=left;verticalAlign=top;spacingLeft=4;spacingRight=4;overflow=hidden;rotatable=0;points=[[0,0.5],[1,0.5]];portConstraint=eastwest;whiteSpace=wrap;html=1;" vertex="1" parent="ZC5v_0BSbkfHpD8rnW3x-187">
          <mxGeometry y="130" width="165" height="26" as="geometry" />
        </mxCell>
        <mxCell id="ZC5v_0BSbkfHpD8rnW3x-193" style="edgeStyle=none;curved=1;rounded=0;orthogonalLoop=1;jettySize=auto;html=1;exitX=1;exitY=0.5;exitDx=0;exitDy=0;entryX=0;entryY=0.5;entryDx=0;entryDy=0;fontSize=12;startSize=8;endSize=8;startArrow=ERoneToMany;startFill=0;endArrow=ERmandOne;endFill=0;" edge="1" parent="1" source="ZC5v_0BSbkfHpD8rnW3x-183" target="ZC5v_0BSbkfHpD8rnW3x-128">
          <mxGeometry relative="1" as="geometry" />
        </mxCell>
        <mxCell id="ZC5v_0BSbkfHpD8rnW3x-195" style="edgeStyle=none;curved=1;rounded=0;orthogonalLoop=1;jettySize=auto;html=1;exitX=0.5;exitY=0;exitDx=0;exitDy=0;entryX=0.498;entryY=0.892;entryDx=0;entryDy=0;entryPerimeter=0;fontSize=12;startSize=8;endSize=8;endArrow=ERoneToMany;endFill=0;startArrow=ERmandOne;startFill=0;" edge="1" parent="1" source="ZC5v_0BSbkfHpD8rnW3x-187" target="ZC5v_0BSbkfHpD8rnW3x-186">
          <mxGeometry relative="1" as="geometry" />
        </mxCell>
        <mxCell id="ZC5v_0BSbkfHpD8rnW3x-197" style="edgeStyle=none;curved=1;rounded=0;orthogonalLoop=1;jettySize=auto;html=1;exitX=1;exitY=0.5;exitDx=0;exitDy=0;entryX=0;entryY=0.5;entryDx=0;entryDy=0;fontSize=12;startSize=8;endSize=8;startArrow=ERoneToMany;startFill=0;endArrow=ERmandOne;endFill=0;" edge="1" parent="1" source="ZC5v_0BSbkfHpD8rnW3x-182" target="ZC5v_0BSbkfHpD8rnW3x-116">
          <mxGeometry relative="1" as="geometry" />
        </mxCell>
        <mxCell id="ZC5v_0BSbkfHpD8rnW3x-199" value="TienDoCongViec" style="swimlane;fontStyle=0;childLayout=stackLayout;horizontal=1;startSize=26;fillColor=none;horizontalStack=0;resizeParent=1;resizeParentMax=0;resizeLast=0;collapsible=1;marginBottom=0;whiteSpace=wrap;html=1;" vertex="1" parent="1">
          <mxGeometry x="-1171" y="-298" width="181" height="182" as="geometry" />
        </mxCell>
        <mxCell id="ZC5v_0BSbkfHpD8rnW3x-200" value="MaTienDoCongViec:int" style="text;strokeColor=none;fillColor=none;align=left;verticalAlign=top;spacingLeft=4;spacingRight=4;overflow=hidden;rotatable=0;points=[[0,0.5],[1,0.5]];portConstraint=eastwest;whiteSpace=wrap;html=1;" vertex="1" parent="ZC5v_0BSbkfHpD8rnW3x-199">
          <mxGeometry y="26" width="181" height="26" as="geometry" />
        </mxCell>
        <mxCell id="ZC5v_0BSbkfHpD8rnW3x-201" value="MaChiTietCongViec:int" style="text;strokeColor=none;fillColor=none;align=left;verticalAlign=top;spacingLeft=4;spacingRight=4;overflow=hidden;rotatable=0;points=[[0,0.5],[1,0.5]];portConstraint=eastwest;whiteSpace=wrap;html=1;" vertex="1" parent="ZC5v_0BSbkfHpD8rnW3x-199">
          <mxGeometry y="52" width="181" height="26" as="geometry" />
        </mxCell>
        <mxCell id="ZC5v_0BSbkfHpD8rnW3x-202" value="NgayCapNhat:nvarchar(250)" style="text;strokeColor=none;fillColor=none;align=left;verticalAlign=top;spacingLeft=4;spacingRight=4;overflow=hidden;rotatable=0;points=[[0,0.5],[1,0.5]];portConstraint=eastwest;whiteSpace=wrap;html=1;" vertex="1" parent="ZC5v_0BSbkfHpD8rnW3x-199">
          <mxGeometry y="78" width="181" height="26" as="geometry" />
        </mxCell>
        <mxCell id="ZC5v_0BSbkfHpD8rnW3x-205" value="MucDoHoanThanh:float" style="text;strokeColor=none;fillColor=none;align=left;verticalAlign=top;spacingLeft=4;spacingRight=4;overflow=hidden;rotatable=0;points=[[0,0.5],[1,0.5]];portConstraint=eastwest;whiteSpace=wrap;html=1;" vertex="1" parent="ZC5v_0BSbkfHpD8rnW3x-199">
          <mxGeometry y="104" width="181" height="26" as="geometry" />
        </mxCell>
        <mxCell id="ZC5v_0BSbkfHpD8rnW3x-206" value="NoiDung:nvarchar(250)" style="text;strokeColor=none;fillColor=none;align=left;verticalAlign=top;spacingLeft=4;spacingRight=4;overflow=hidden;rotatable=0;points=[[0,0.5],[1,0.5]];portConstraint=eastwest;whiteSpace=wrap;html=1;" vertex="1" parent="ZC5v_0BSbkfHpD8rnW3x-199">
          <mxGeometry y="130" width="181" height="26" as="geometry" />
        </mxCell>
        <mxCell id="ZC5v_0BSbkfHpD8rnW3x-203" value="TrangThai:boolean" style="text;strokeColor=none;fillColor=none;align=left;verticalAlign=top;spacingLeft=4;spacingRight=4;overflow=hidden;rotatable=0;points=[[0,0.5],[1,0.5]];portConstraint=eastwest;whiteSpace=wrap;html=1;" vertex="1" parent="ZC5v_0BSbkfHpD8rnW3x-199">
          <mxGeometry y="156" width="181" height="26" as="geometry" />
        </mxCell>
        <mxCell id="ZC5v_0BSbkfHpD8rnW3x-204" style="edgeStyle=none;curved=1;rounded=0;orthogonalLoop=1;jettySize=auto;html=1;exitX=1;exitY=0.5;exitDx=0;exitDy=0;entryX=0.25;entryY=0;entryDx=0;entryDy=0;fontSize=12;startSize=8;endSize=8;startArrow=ERoneToMany;startFill=0;endArrow=ERmandOne;endFill=0;" edge="1" parent="1" source="ZC5v_0BSbkfHpD8rnW3x-203" target="ZC5v_0BSbkfHpD8rnW3x-127">
          <mxGeometry relative="1" as="geometry" />
        </mxCell>
        <mxCell id="ZC5v_0BSbkfHpD8rnW3x-207" value="ThongBaoCaNhan" style="swimlane;fontStyle=0;childLayout=stackLayout;horizontal=1;startSize=26;fillColor=none;horizontalStack=0;resizeParent=1;resizeParentMax=0;resizeLast=0;collapsible=1;marginBottom=0;whiteSpace=wrap;html=1;" vertex="1" parent="1">
          <mxGeometry x="-103" y="105" width="165" height="156" as="geometry" />
        </mxCell>
        <mxCell id="ZC5v_0BSbkfHpD8rnW3x-208" value="MaThongBaoCaNhan:int" style="text;strokeColor=none;fillColor=none;align=left;verticalAlign=top;spacingLeft=4;spacingRight=4;overflow=hidden;rotatable=0;points=[[0,0.5],[1,0.5]];portConstraint=eastwest;whiteSpace=wrap;html=1;" vertex="1" parent="ZC5v_0BSbkfHpD8rnW3x-207">
          <mxGeometry y="26" width="165" height="26" as="geometry" />
        </mxCell>
        <mxCell id="ZC5v_0BSbkfHpD8rnW3x-209" value="MaNguoiGui:int" style="text;strokeColor=none;fillColor=none;align=left;verticalAlign=top;spacingLeft=4;spacingRight=4;overflow=hidden;rotatable=0;points=[[0,0.5],[1,0.5]];portConstraint=eastwest;whiteSpace=wrap;html=1;" vertex="1" parent="ZC5v_0BSbkfHpD8rnW3x-207">
          <mxGeometry y="52" width="165" height="26" as="geometry" />
        </mxCell>
        <mxCell id="ZC5v_0BSbkfHpD8rnW3x-212" value="MaNguoiNhan:int" style="text;strokeColor=none;fillColor=none;align=left;verticalAlign=top;spacingLeft=4;spacingRight=4;overflow=hidden;rotatable=0;points=[[0,0.5],[1,0.5]];portConstraint=eastwest;whiteSpace=wrap;html=1;" vertex="1" parent="ZC5v_0BSbkfHpD8rnW3x-207">
          <mxGeometry y="78" width="165" height="26" as="geometry" />
        </mxCell>
        <mxCell id="ZC5v_0BSbkfHpD8rnW3x-210" value="NoiDungThongBao" style="text;strokeColor=none;fillColor=none;align=left;verticalAlign=top;spacingLeft=4;spacingRight=4;overflow=hidden;rotatable=0;points=[[0,0.5],[1,0.5]];portConstraint=eastwest;whiteSpace=wrap;html=1;" vertex="1" parent="ZC5v_0BSbkfHpD8rnW3x-207">
          <mxGeometry y="104" width="165" height="26" as="geometry" />
        </mxCell>
        <mxCell id="ZC5v_0BSbkfHpD8rnW3x-211" value="TrangThai:boolean" style="text;strokeColor=none;fillColor=none;align=left;verticalAlign=top;spacingLeft=4;spacingRight=4;overflow=hidden;rotatable=0;points=[[0,0.5],[1,0.5]];portConstraint=eastwest;whiteSpace=wrap;html=1;" vertex="1" parent="ZC5v_0BSbkfHpD8rnW3x-207">
          <mxGeometry y="130" width="165" height="26" as="geometry" />
        </mxCell>
      </root>
    </mxGraphModel>
  </diagram>
</mxfile>
